<svg xmlns="http://www.w3.org/2000/svg" viewBox="0 0 74.5 73.03"><defs><style>.cls-1{fill:#acb7c9;}.cls-2{fill:#fff;}</style></defs><title>Recurso 330</title><g id="Capa_2" data-name="Capa 2"><g id="Capa_1-2" data-name="Capa 1"><rect class="cls-1" width="74.5" height="73.03" rx="16.46"/><path class="cls-2" d="M58.37,27.87a1.76,1.76,0,0,0-1.63-1.1H38.13l-4.78-6.38a1.78,1.78,0,0,0-1.42-.7H24.85a1.78,1.78,0,0,0-1.39.66l-7.08,8.86a1.77,1.77,0,0,0,1.38,2.88h7.09v7.08a1.81,1.81,0,0,0,.23.88l7.09,12.4a1.75,1.75,0,0,0,1.54.9H49.65a1.78,1.78,0,0,0,1.11-3.16l-7.32-5.85L58,29.8A1.75,1.75,0,0,0,58.37,27.87Zm-23.46.51L28.39,34.9V23.23h2.66Zm-13.46.16,3.4-4.25v4.25ZM44.6,49.8H38l2.94-2.94ZM34.09,48.68l-5.26-9.21L38,30.32H52.46Z"/></g></g></svg>